<mxfile host="app.diagrams.net" modified="2021-08-11T01:03:57.027Z" agent="5.0 (Windows NT 10.0; Win64; x64) AppleWebKit/537.36 (KHTML, like Gecko) Chrome/92.0.4515.131 Safari/537.36 Edg/92.0.902.67" etag="hR0w5bZXNhtYGNTuq3gi" version="14.9.4" type="github">
  <diagram id="qH_iLx4BZSjk6LO3beg1" name="Page-1">
    <mxGraphModel dx="782" dy="468" grid="1" gridSize="10" guides="1" tooltips="1" connect="1" arrows="1" fold="1" page="1" pageScale="1" pageWidth="827" pageHeight="1169" math="0" shadow="0">
      <root>
        <mxCell id="0" />
        <mxCell id="1" parent="0" />
        <mxCell id="6lTziN8gZvTSPVGRIZXE-1" value="" style="line;strokeWidth=2;html=1;" parent="1" vertex="1">
          <mxGeometry x="130" y="240" width="440" height="10" as="geometry" />
        </mxCell>
        <mxCell id="6lTziN8gZvTSPVGRIZXE-2" value="" style="endArrow=none;dashed=1;html=1;dashPattern=1 3;strokeWidth=2;" parent="1" edge="1">
          <mxGeometry width="50" height="50" relative="1" as="geometry">
            <mxPoint x="280" y="680" as="sourcePoint" />
            <mxPoint x="280" y="200" as="targetPoint" />
          </mxGeometry>
        </mxCell>
        <mxCell id="6lTziN8gZvTSPVGRIZXE-3" value="" style="endArrow=none;dashed=1;html=1;dashPattern=1 3;strokeWidth=2;" parent="1" edge="1">
          <mxGeometry width="50" height="50" relative="1" as="geometry">
            <mxPoint x="440" y="680" as="sourcePoint" />
            <mxPoint x="440" y="200" as="targetPoint" />
          </mxGeometry>
        </mxCell>
        <mxCell id="6lTziN8gZvTSPVGRIZXE-4" value="开发测试环境" style="text;html=1;align=center;verticalAlign=middle;resizable=0;points=[];autosize=1;strokeColor=none;" parent="1" vertex="1">
          <mxGeometry x="165" y="220" width="90" height="20" as="geometry" />
        </mxCell>
        <mxCell id="6lTziN8gZvTSPVGRIZXE-5" value="运维管理区" style="text;html=1;align=center;verticalAlign=middle;resizable=0;points=[];autosize=1;strokeColor=none;" parent="1" vertex="1">
          <mxGeometry x="310" y="220" width="80" height="20" as="geometry" />
        </mxCell>
        <mxCell id="6lTziN8gZvTSPVGRIZXE-6" value="生产" style="text;html=1;align=center;verticalAlign=middle;resizable=0;points=[];autosize=1;strokeColor=none;" parent="1" vertex="1">
          <mxGeometry x="480" y="220" width="40" height="20" as="geometry" />
        </mxCell>
        <mxCell id="6lTziN8gZvTSPVGRIZXE-17" value="" style="edgeStyle=orthogonalEdgeStyle;rounded=0;orthogonalLoop=1;jettySize=auto;html=1;" parent="1" source="6lTziN8gZvTSPVGRIZXE-7" target="6lTziN8gZvTSPVGRIZXE-16" edge="1">
          <mxGeometry relative="1" as="geometry" />
        </mxCell>
        <mxCell id="6lTziN8gZvTSPVGRIZXE-7" value="编译打包&lt;br&gt;（jenkins）" style="rounded=1;whiteSpace=wrap;html=1;" parent="1" vertex="1">
          <mxGeometry x="160" y="320" width="80" height="30" as="geometry" />
        </mxCell>
        <mxCell id="6lTziN8gZvTSPVGRIZXE-15" value="" style="edgeStyle=orthogonalEdgeStyle;rounded=0;orthogonalLoop=1;jettySize=auto;html=1;" parent="1" source="6lTziN8gZvTSPVGRIZXE-8" target="6lTziN8gZvTSPVGRIZXE-7" edge="1">
          <mxGeometry relative="1" as="geometry" />
        </mxCell>
        <mxCell id="6lTziN8gZvTSPVGRIZXE-8" value="开始" style="ellipse;whiteSpace=wrap;html=1;" parent="1" vertex="1">
          <mxGeometry x="160" y="260" width="80" height="40" as="geometry" />
        </mxCell>
        <mxCell id="BYMXJIbRTkAoQpYgVThO-6" value="" style="edgeStyle=orthogonalEdgeStyle;rounded=0;orthogonalLoop=1;jettySize=auto;html=1;" edge="1" parent="1" source="6lTziN8gZvTSPVGRIZXE-16" target="6lTziN8gZvTSPVGRIZXE-21">
          <mxGeometry relative="1" as="geometry" />
        </mxCell>
        <mxCell id="6lTziN8gZvTSPVGRIZXE-16" value="制品库" style="rounded=1;whiteSpace=wrap;html=1;" parent="1" vertex="1">
          <mxGeometry x="160" y="370" width="80" height="30" as="geometry" />
        </mxCell>
        <mxCell id="6lTziN8gZvTSPVGRIZXE-36" value="" style="edgeStyle=orthogonalEdgeStyle;rounded=0;orthogonalLoop=1;jettySize=auto;html=1;" parent="1" source="6lTziN8gZvTSPVGRIZXE-18" target="6lTziN8gZvTSPVGRIZXE-35" edge="1">
          <mxGeometry relative="1" as="geometry" />
        </mxCell>
        <mxCell id="6lTziN8gZvTSPVGRIZXE-18" value="自动化发布平台（准生产）" style="rounded=1;whiteSpace=wrap;html=1;" parent="1" vertex="1">
          <mxGeometry x="160" y="490" width="80" height="40" as="geometry" />
        </mxCell>
        <mxCell id="6lTziN8gZvTSPVGRIZXE-25" value="" style="edgeStyle=orthogonalEdgeStyle;rounded=0;orthogonalLoop=1;jettySize=auto;html=1;entryX=0;entryY=0.5;entryDx=0;entryDy=0;" parent="1" source="6lTziN8gZvTSPVGRIZXE-21" target="6lTziN8gZvTSPVGRIZXE-24" edge="1">
          <mxGeometry relative="1" as="geometry">
            <Array as="points">
              <mxPoint x="460" y="445" />
            </Array>
          </mxGeometry>
        </mxCell>
        <mxCell id="6lTziN8gZvTSPVGRIZXE-21" value="压缩包（jar包，脚本）" style="rounded=1;whiteSpace=wrap;html=1;" parent="1" vertex="1">
          <mxGeometry x="160" y="430" width="80" height="40" as="geometry" />
        </mxCell>
        <mxCell id="BYMXJIbRTkAoQpYgVThO-3" value="" style="edgeStyle=orthogonalEdgeStyle;rounded=0;orthogonalLoop=1;jettySize=auto;html=1;" edge="1" parent="1" source="6lTziN8gZvTSPVGRIZXE-24" target="6lTziN8gZvTSPVGRIZXE-26">
          <mxGeometry relative="1" as="geometry" />
        </mxCell>
        <mxCell id="6lTziN8gZvTSPVGRIZXE-24" value="压缩包（jar包，脚本）" style="rounded=1;whiteSpace=wrap;html=1;" parent="1" vertex="1">
          <mxGeometry x="470" y="430" width="80" height="30" as="geometry" />
        </mxCell>
        <mxCell id="BYMXJIbRTkAoQpYgVThO-4" value="" style="edgeStyle=orthogonalEdgeStyle;rounded=0;orthogonalLoop=1;jettySize=auto;html=1;" edge="1" parent="1" source="6lTziN8gZvTSPVGRIZXE-26" target="6lTziN8gZvTSPVGRIZXE-31">
          <mxGeometry relative="1" as="geometry" />
        </mxCell>
        <mxCell id="6lTziN8gZvTSPVGRIZXE-26" value="自动化发布平台（生产）" style="rounded=1;whiteSpace=wrap;html=1;" parent="1" vertex="1">
          <mxGeometry x="470" y="530" width="80" height="40" as="geometry" />
        </mxCell>
        <mxCell id="6lTziN8gZvTSPVGRIZXE-28" value="发布单、发布方案&lt;br&gt;（服务台）" style="rounded=1;whiteSpace=wrap;html=1;" parent="1" vertex="1">
          <mxGeometry x="160" y="630" width="80" height="50" as="geometry" />
        </mxCell>
        <mxCell id="6lTziN8gZvTSPVGRIZXE-29" value="" style="edgeStyle=elbowEdgeStyle;elbow=horizontal;endArrow=classic;html=1;exitX=1;exitY=0.25;exitDx=0;exitDy=0;entryX=0;entryY=0.5;entryDx=0;entryDy=0;" parent="1" source="6lTziN8gZvTSPVGRIZXE-28" target="6lTziN8gZvTSPVGRIZXE-26" edge="1">
          <mxGeometry width="50" height="50" relative="1" as="geometry">
            <mxPoint x="360" y="540" as="sourcePoint" />
            <mxPoint x="410" y="490" as="targetPoint" />
            <Array as="points">
              <mxPoint x="420" y="620" />
              <mxPoint x="410" y="550" />
            </Array>
          </mxGeometry>
        </mxCell>
        <mxCell id="6lTziN8gZvTSPVGRIZXE-31" value="发布成功&lt;br&gt;（结果）" style="rounded=1;whiteSpace=wrap;html=1;" parent="1" vertex="1">
          <mxGeometry x="470" y="600" width="80" height="40" as="geometry" />
        </mxCell>
        <mxCell id="6lTziN8gZvTSPVGRIZXE-34" value="" style="edgeStyle=elbowEdgeStyle;elbow=horizontal;endArrow=classic;html=1;exitX=0;exitY=0.5;exitDx=0;exitDy=0;entryX=0;entryY=0.5;entryDx=0;entryDy=0;" parent="1" source="6lTziN8gZvTSPVGRIZXE-28" target="6lTziN8gZvTSPVGRIZXE-18" edge="1">
          <mxGeometry width="50" height="50" relative="1" as="geometry">
            <mxPoint x="360" y="450" as="sourcePoint" />
            <mxPoint x="410" y="400" as="targetPoint" />
            <Array as="points">
              <mxPoint x="120" y="500" />
            </Array>
          </mxGeometry>
        </mxCell>
        <mxCell id="6lTziN8gZvTSPVGRIZXE-35" value="验证成功&lt;br&gt;（结果）" style="rounded=1;whiteSpace=wrap;html=1;" parent="1" vertex="1">
          <mxGeometry x="160" y="560" width="80" height="30" as="geometry" />
        </mxCell>
        <mxCell id="6lTziN8gZvTSPVGRIZXE-37" value="&lt;font style=&quot;font-size: 14px&quot;&gt;&lt;b&gt;方案1 草图&lt;/b&gt;&lt;/font&gt;" style="text;html=1;align=center;verticalAlign=middle;resizable=0;points=[];autosize=1;strokeColor=none;" parent="1" vertex="1">
          <mxGeometry x="310" y="190" width="80" height="20" as="geometry" />
        </mxCell>
        <mxCell id="BYMXJIbRTkAoQpYgVThO-5" value="" style="edgeStyle=elbowEdgeStyle;elbow=horizontal;endArrow=classic;html=1;entryX=1;entryY=0.5;entryDx=0;entryDy=0;exitX=0.5;exitY=1;exitDx=0;exitDy=0;" edge="1" parent="1" source="6lTziN8gZvTSPVGRIZXE-31" target="6lTziN8gZvTSPVGRIZXE-28">
          <mxGeometry width="50" height="50" relative="1" as="geometry">
            <mxPoint x="510" y="670" as="sourcePoint" />
            <mxPoint x="430" y="470" as="targetPoint" />
            <Array as="points">
              <mxPoint x="510" y="680" />
            </Array>
          </mxGeometry>
        </mxCell>
        <mxCell id="BYMXJIbRTkAoQpYgVThO-8" value="" style="endArrow=classic;html=1;exitX=0.5;exitY=1;exitDx=0;exitDy=0;entryX=0.5;entryY=0;entryDx=0;entryDy=0;" edge="1" parent="1" source="6lTziN8gZvTSPVGRIZXE-21" target="6lTziN8gZvTSPVGRIZXE-18">
          <mxGeometry width="50" height="50" relative="1" as="geometry">
            <mxPoint x="380" y="520" as="sourcePoint" />
            <mxPoint x="430" y="470" as="targetPoint" />
          </mxGeometry>
        </mxCell>
        <mxCell id="BYMXJIbRTkAoQpYgVThO-9" value="预处理" style="text;html=1;align=center;verticalAlign=middle;resizable=0;points=[];autosize=1;strokeColor=none;" vertex="1" parent="1">
          <mxGeometry x="200" y="410" width="50" height="20" as="geometry" />
        </mxCell>
        <mxCell id="BYMXJIbRTkAoQpYgVThO-10" value="U盘、杀毒等动作" style="text;html=1;align=center;verticalAlign=middle;resizable=0;points=[];autosize=1;strokeColor=none;" vertex="1" parent="1">
          <mxGeometry x="315" y="420" width="110" height="20" as="geometry" />
        </mxCell>
      </root>
    </mxGraphModel>
  </diagram>
</mxfile>
